<svg version="1.1" xmlns="http://www.w3.org/2000/svg" viewBox="0 0 95 90" width="95" height="90">
  <!-- svg-source:excalidraw -->
  
  <defs>
    <style class="style-fonts">
      @font-face {
        font-family: "Virgil";
        src: url("https://excalidraw.com/Virgil.woff2");
      }
      @font-face {
        font-family: "Cascadia";
        src: url("https://excalidraw.com/Cascadia.woff2");
      }
      @font-face {
        font-family: "Assistant";
        src: url("https://excalidraw.com/Assistant-Regular.woff2");
      }
    </style>
    
  </defs>
  <rect x="0" y="0" width="95" height="90" fill="#ffffff"></rect><g transform="translate(15 64) rotate(0 32.5 -19)" stroke="none"><path fill="#1e1e1e" d="M -1.59,-0.31 Q -1.59,-0.31 -0.68,-4.62 0.21,-8.93 3.52,-16.93 6.84,-24.92 8.81,-29.42 10.79,-33.92 13.10,-38.18 15.41,-42.43 16.94,-45.63 18.48,-48.82 19.49,-50.61 20.51,-52.41 22.63,-53.38 24.76,-54.35 28.03,-54.67 31.30,-54.99 36.16,-54.81 41.01,-54.64 46.89,-53.39 52.77,-52.15 56.92,-51.34 61.08,-50.52 63.44,-50.16 65.80,-49.80 67.48,-48.66 69.15,-47.51 69.88,-45.01 70.61,-42.50 69.98,-37.31 69.34,-32.12 67.02,-23.88 64.71,-15.65 61.70,-7.82 58.68,0.00 56.83,4.47 54.97,8.93 53.48,11.27 51.99,13.60 49.10,14.75 46.20,15.89 40.51,15.16 34.81,14.43 27.02,12.95 19.22,11.47 12.48,10.27 5.74,9.07 2.10,7.95 -1.53,6.84 -1.42,3.38 -1.31,-0.06 -1.27,-0.27 -1.22,-0.48 -1.11,-0.66 -1.00,-0.84 -0.84,-0.98 -0.68,-1.12 -0.48,-1.20 -0.28,-1.28 -0.07,-1.29 0.13,-1.31 0.34,-1.25 0.54,-1.19 0.72,-1.07 0.90,-0.96 1.03,-0.79 1.16,-0.62 1.23,-0.42 1.29,-0.21 1.30,-0.00 1.30,0.20 1.23,0.40 1.16,0.61 1.03,0.78 0.91,0.95 0.73,1.07 0.55,1.19 0.35,1.25 0.14,1.30 -0.06,1.29 -0.27,1.28 -0.47,1.21 -0.67,1.13 -0.83,0.99 -1.00,0.85 -1.11,0.67 -1.22,0.49 -1.26,0.28 -1.31,0.07 -1.29,-0.13 -1.27,-0.34 -1.18,-0.54 -1.09,-0.73 -0.94,-0.89 -0.80,-1.04 -0.61,-1.14 -0.42,-1.24 -0.21,-1.28 -0.00,-1.31 0.20,-1.28 0.41,-1.25 0.60,-1.15 0.79,-1.05 0.94,-0.89 1.08,-0.74 1.17,-0.55 1.26,-0.35 1.29,-0.14 1.31,0.06 1.31,0.06 1.31,0.06 1.08,3.36 0.86,6.66 3.53,6.57 6.20,6.47 12.96,7.67 19.72,8.87 27.45,10.33 35.18,11.80 40.31,12.58 45.45,13.36 47.73,12.65 50.01,11.94 51.24,9.92 52.47,7.89 54.29,3.45 56.12,-0.97 59.07,-8.69 62.02,-16.40 64.27,-24.44 66.51,-32.48 67.14,-37.17 67.76,-41.86 67.40,-43.66 67.04,-45.46 66.14,-46.33 65.24,-47.20 62.91,-47.52 60.57,-47.85 56.38,-48.65 52.19,-49.44 46.55,-50.64 40.91,-51.83 36.24,-51.97 31.58,-52.12 28.69,-51.84 25.80,-51.56 24.25,-51.12 22.70,-50.68 21.83,-49.16 20.96,-47.63 19.42,-44.37 17.88,-41.11 15.65,-36.94 13.42,-32.78 11.50,-28.29 9.57,-23.80 6.40,-16.06 3.23,-8.31 2.41,-3.99 1.59,0.31 1.53,0.50 1.47,0.69 1.36,0.85 1.26,1.02 1.12,1.15 0.98,1.29 0.81,1.39 0.64,1.49 0.45,1.54 0.26,1.60 0.07,1.61 -0.12,1.62 -0.31,1.58 -0.50,1.54 -0.68,1.46 -0.86,1.37 -1.01,1.25 -1.16,1.13 -1.28,0.97 -1.40,0.81 -1.48,0.63 -1.55,0.45 -1.59,0.26 -1.62,0.07 -1.60,-0.12 -1.59,-0.31 -1.59,-0.31 L -1.59,-0.31 Z"></path></g><g transform="translate(39 25) rotate(0 10.5 5.5)" stroke="none"><path fill="#1e1e1e" d="M 1.30,-1.56 Q 1.30,-1.56 2.97,-0.04 4.64,1.47 5.83,3.11 7.01,4.76 7.82,5.98 8.63,7.20 10.95,7.17 13.26,7.14 15.26,6.38 17.26,5.61 18.75,4.93 20.24,4.25 20.54,4.17 20.84,4.10 21.14,4.12 21.45,4.15 21.73,4.27 22.02,4.39 22.25,4.59 22.48,4.80 22.63,5.07 22.78,5.33 22.84,5.64 22.90,5.94 22.86,6.24 22.82,6.55 22.68,6.83 22.54,7.10 22.33,7.32 22.11,7.54 21.83,7.68 21.56,7.81 21.25,7.86 20.95,7.90 20.65,7.84 20.34,7.78 20.07,7.63 19.81,7.48 19.60,7.25 19.39,7.02 19.27,6.74 19.15,6.46 19.12,6.15 19.10,5.84 19.17,5.55 19.24,5.25 19.41,4.99 19.58,4.73 19.81,4.53 20.05,4.34 20.34,4.23 20.63,4.13 20.94,4.12 21.25,4.11 21.54,4.20 21.84,4.29 22.09,4.47 22.34,4.65 22.52,4.90 22.70,5.15 22.79,5.44 22.88,5.73 22.87,6.04 22.87,6.35 22.76,6.64 22.65,6.93 22.46,7.17 22.27,7.41 22.01,7.58 21.75,7.74 21.75,7.74 21.75,7.74 20.24,8.36 18.72,8.98 16.65,9.98 14.59,10.97 11.95,11.79 9.31,12.61 7.92,11.90 6.53,11.19 5.88,10.22 5.23,9.24 4.60,8.06 3.96,6.87 3.11,5.57 2.25,4.27 0.47,2.92 -1.30,1.56 -1.47,1.38 -1.64,1.20 -1.76,0.99 -1.88,0.78 -1.94,0.54 -2.01,0.30 -2.02,0.06 -2.03,-0.18 -1.97,-0.42 -1.92,-0.66 -1.81,-0.88 -1.71,-1.10 -1.55,-1.29 -1.39,-1.48 -1.19,-1.63 -1.00,-1.77 -0.77,-1.86 -0.54,-1.96 -0.30,-2.00 -0.06,-2.03 0.18,-2.01 0.42,-1.99 0.66,-1.91 0.89,-1.83 1.09,-1.69 1.30,-1.56 1.30,-1.56 L 1.30,-1.56 Z"></path></g><g transform="translate(64 30) rotate(0 2.5 5)" stroke="none"><path fill="#1e1e1e" d="M 2.27,-0.91 Q 2.27,-0.91 2.83,0.53 3.39,1.97 3.92,3.49 4.46,5.01 5.42,6.42 6.38,7.83 6.69,8.10 7.00,8.38 7.20,8.74 7.41,9.11 7.49,9.51 7.56,9.92 7.51,10.33 7.45,10.75 7.27,11.12 7.08,11.49 6.79,11.79 6.50,12.08 6.12,12.27 5.75,12.45 5.34,12.51 4.93,12.56 4.52,12.49 4.11,12.41 3.75,12.20 3.39,12.00 3.11,11.69 2.83,11.38 2.67,11.00 2.50,10.62 2.47,10.20 2.43,9.79 2.53,9.39 2.63,8.98 2.86,8.63 3.08,8.28 3.40,8.02 3.73,7.76 4.12,7.61 4.51,7.47 4.92,7.46 5.34,7.45 5.74,7.57 6.13,7.69 6.47,7.93 6.81,8.18 7.05,8.51 7.30,8.85 7.42,9.25 7.54,9.65 7.53,10.06 7.52,10.48 7.38,10.87 7.23,11.26 6.97,11.58 6.71,11.91 6.36,12.13 6.01,12.36 5.61,12.46 5.21,12.56 4.79,12.52 4.38,12.49 3.99,12.33 3.61,12.16 3.61,12.16 3.61,12.16 1.79,9.39 -0.03,6.63 -0.56,5.20 -1.09,3.77 -1.68,2.34 -2.27,0.91 -2.35,0.62 -2.42,0.33 -2.43,0.04 -2.43,-0.25 -2.37,-0.53 -2.30,-0.82 -2.17,-1.09 -2.04,-1.35 -1.84,-1.58 -1.65,-1.80 -1.41,-1.97 -1.17,-2.14 -0.90,-2.25 -0.62,-2.36 -0.33,-2.40 -0.04,-2.45 0.24,-2.42 0.54,-2.38 0.82,-2.28 1.09,-2.19 1.34,-2.02 1.59,-1.86 1.79,-1.64 1.99,-1.42 2.13,-1.16 2.27,-0.90 2.27,-0.91 L 2.27,-0.91 Z"></path></g><g transform="translate(69 40) rotate(0 1 0)" stroke="none"><path fill="#1e1e1e" d="M 2.12,-0.66 Q 2.12,-0.66 2.15,-0.13 2.18,0.40 1.96,0.88 1.74,1.36 1.32,1.69 0.91,2.02 0.38,2.12 -0.13,2.21 -0.64,2.05 -1.14,1.90 -1.52,1.52 -1.90,1.14 -2.05,0.64 -2.21,0.13 -2.12,-0.38 -2.02,-0.91 -1.69,-1.32 -1.36,-1.74 -0.88,-1.96 -0.39,-2.18 0.13,-2.15 0.66,-2.11 1.11,-1.84 1.57,-1.56 1.84,-1.11 L 2.12,-0.66 Z"></path></g><g transform="translate(31 39) rotate(0 2 1)" stroke="none"><path fill="#1e1e1e" d="M 2.12,-0.66 Q 2.12,-0.66 2.15,-0.13 2.18,0.40 1.96,0.88 1.74,1.36 1.32,1.69 0.91,2.02 0.38,2.12 -0.13,2.21 -0.64,2.05 -1.14,1.90 -1.52,1.52 -1.90,1.14 -2.05,0.64 -2.21,0.13 -2.12,-0.38 -2.02,-0.91 -1.69,-1.32 -1.36,-1.74 -0.88,-1.96 -0.39,-2.18 0.13,-2.15 0.66,-2.11 1.11,-1.84 1.57,-1.56 1.84,-1.11 L 2.12,-0.66 Z"></path></g><g transform="translate(37 41) rotate(0 12 3)" stroke="none"><path fill="#1e1e1e" d="M 0,-2.61 Q 0,-2.61 1.43,-2.59 2.87,-2.58 5.19,-2.26 7.50,-1.95 8.72,-0.96 9.93,0.01 10.79,0.87 11.65,1.73 12.99,1.85 14.33,1.97 16.17,1.99 18.01,2.02 19.19,2.42 20.37,2.82 21.42,2.52 22.47,2.23 22.95,2.06 23.43,1.89 23.94,1.88 24.45,1.87 24.94,2.03 25.43,2.18 25.84,2.48 26.25,2.79 26.55,3.20 26.84,3.62 26.98,4.11 27.13,4.60 27.11,5.11 27.09,5.62 26.91,6.10 26.73,6.58 26.40,6.97 26.08,7.37 25.65,7.64 25.21,7.91 24.72,8.03 24.22,8.15 23.71,8.10 23.20,8.05 22.73,7.85 22.27,7.64 21.89,7.29 21.51,6.95 21.27,6.50 21.02,6.05 20.93,5.55 20.84,5.05 20.91,4.54 20.99,4.04 21.22,3.58 21.45,3.13 21.81,2.77 22.18,2.41 22.64,2.19 23.10,1.97 23.61,1.90 24.11,1.84 24.61,1.94 25.12,2.04 25.56,2.30 26.00,2.55 26.34,2.94 26.67,3.32 26.87,3.79 27.07,4.27 27.10,4.78 27.14,5.28 27.01,5.78 26.88,6.27 26.60,6.70 26.32,7.13 25.92,7.45 25.52,7.76 25.52,7.76 25.52,7.76 22.51,8.29 19.51,8.81 17.87,8.35 16.24,7.89 14.22,7.75 12.21,7.60 10.94,7.27 9.68,6.94 8.72,6.31 7.77,5.68 6.71,4.39 5.66,3.10 4.26,2.84 2.87,2.58 1.43,2.59 0,2.61 -0.31,2.57 -0.62,2.53 -0.91,2.42 -1.21,2.31 -1.47,2.13 -1.73,1.95 -1.94,1.72 -2.15,1.48 -2.29,1.20 -2.44,0.92 -2.51,0.62 -2.59,0.31 -2.59,-0.00 -2.59,-0.31 -2.51,-0.62 -2.44,-0.92 -2.29,-1.20 -2.15,-1.48 -1.94,-1.72 -1.73,-1.95 -1.47,-2.13 -1.21,-2.31 -0.91,-2.42 -0.62,-2.53 -0.31,-2.57 0.00,-2.61 0.00,-2.61 L 0,-2.61 Z"></path></g><g transform="translate(25 55) rotate(0 4 -1.5)" stroke="none"><path fill="#1e1e1e" d="M -0.48,-2.42 Q -0.48,-2.42 0.95,-2.70 2.39,-2.98 4.40,-4.04 6.40,-5.10 6.78,-5.30 7.16,-5.50 7.58,-5.57 8.00,-5.64 8.43,-5.57 8.85,-5.50 9.22,-5.30 9.60,-5.09 9.89,-4.78 10.19,-4.47 10.37,-4.08 10.54,-3.69 10.59,-3.27 10.63,-2.84 10.54,-2.43 10.45,-2.01 10.23,-1.64 10.00,-1.28 9.68,-1.00 9.35,-0.73 8.95,-0.57 8.55,-0.41 8.13,-0.39 7.70,-0.37 7.29,-0.48 6.88,-0.60 6.52,-0.84 6.17,-1.08 5.91,-1.42 5.66,-1.77 5.52,-2.17 5.39,-2.58 5.39,-3.00 5.39,-3.43 5.53,-3.84 5.66,-4.24 5.92,-4.58 6.18,-4.92 6.54,-5.16 6.89,-5.40 7.31,-5.51 7.72,-5.62 8.15,-5.60 8.57,-5.57 8.97,-5.41 9.37,-5.25 9.69,-4.98 10.02,-4.70 10.23,-4.33 10.45,-3.96 10.54,-3.55 10.63,-3.13 10.59,-2.70 10.54,-2.28 10.36,-1.89 10.18,-1.50 9.88,-1.19 9.59,-0.88 9.59,-0.89 9.59,-0.89 6.47,0.47 3.35,1.83 1.92,2.13 0.48,2.42 0.18,2.44 -0.10,2.46 -0.40,2.41 -0.69,2.36 -0.97,2.25 -1.24,2.13 -1.48,1.95 -1.71,1.77 -1.90,1.54 -2.09,1.31 -2.21,1.04 -2.34,0.77 -2.40,0.48 -2.46,0.18 -2.44,-0.10 -2.43,-0.40 -2.35,-0.69 -2.26,-0.97 -2.11,-1.23 -1.96,-1.49 -1.76,-1.70 -1.55,-1.91 -1.30,-2.07 -1.04,-2.23 -0.76,-2.32 -0.48,-2.42 -0.48,-2.42 L -0.48,-2.42 Z"></path></g><g transform="translate(34 52) rotate(0 14.5 6)" stroke="none"><path fill="#1e1e1e" d="M 1.40,-1.87 Q 1.40,-1.87 2.55,-1.02 3.70,-0.17 4.90,0.03 6.09,0.23 7.47,0.31 8.85,0.38 11.43,1.17 14.02,1.96 15.52,2.20 17.01,2.44 18.43,2.84 19.85,3.23 20.92,3.74 21.99,4.25 23.22,5.55 24.46,6.84 25.72,8.05 26.98,9.27 28.17,9.30 29.36,9.33 29.77,9.45 30.19,9.58 30.54,9.83 30.90,10.09 31.15,10.44 31.41,10.80 31.54,11.21 31.66,11.63 31.65,12.06 31.64,12.50 31.49,12.91 31.34,13.32 31.07,13.66 30.80,14.00 30.43,14.23 30.06,14.47 29.64,14.57 29.22,14.68 28.78,14.64 28.35,14.61 27.95,14.44 27.55,14.27 27.22,13.98 26.90,13.68 26.68,13.31 26.47,12.93 26.38,12.50 26.30,12.07 26.36,11.64 26.42,11.21 26.61,10.82 26.81,10.42 27.11,10.12 27.42,9.81 27.81,9.61 28.20,9.42 28.63,9.36 29.07,9.30 29.49,9.38 29.92,9.47 30.30,9.68 30.68,9.89 30.97,10.22 31.26,10.54 31.44,10.94 31.61,11.34 31.64,11.78 31.68,12.21 31.58,12.63 31.47,13.06 31.24,13.43 31.00,13.79 30.66,14.07 30.32,14.34 29.91,14.49 29.50,14.64 29.07,14.65 28.63,14.66 28.63,14.66 28.63,14.66 25.97,13.81 23.31,12.95 22.06,11.49 20.81,10.03 19.63,8.81 18.45,7.58 17.37,7.19 16.30,6.79 14.62,6.52 12.94,6.24 10.77,5.83 8.61,5.41 6.92,5.35 5.22,5.30 4.02,5.00 2.81,4.70 1.85,4.16 0.89,3.62 -0.25,2.74 -1.40,1.87 -1.60,1.67 -1.81,1.48 -1.96,1.24 -2.11,1.00 -2.20,0.73 -2.29,0.47 -2.31,0.18 -2.33,-0.09 -2.29,-0.37 -2.24,-0.64 -2.13,-0.90 -2.02,-1.16 -1.85,-1.39 -1.68,-1.61 -1.47,-1.79 -1.25,-1.97 -0.99,-2.09 -0.74,-2.21 -0.46,-2.27 -0.19,-2.33 0.09,-2.32 0.37,-2.31 0.64,-2.23 0.91,-2.15 1.15,-2.01 1.40,-1.87 1.40,-1.87 L 1.40,-1.87 Z"></path></g><g transform="translate(42.826340696869465 18.11281405357596) rotate(0 3.8788826029051506 0.1616201084543718)" stroke="none"><path fill="#1e1e1e" d="M 0.13,-2.31 Q 0.13,-2.31 1.71,-2.21 3.29,-2.11 5.56,-2.10 7.82,-2.09 8.21,-2.01 8.59,-1.94 8.93,-1.74 9.27,-1.55 9.53,-1.26 9.79,-0.97 9.94,-0.61 10.10,-0.25 10.13,0.13 10.16,0.52 10.06,0.90 9.97,1.28 9.76,1.61 9.55,1.94 9.24,2.18 8.94,2.42 8.57,2.56 8.20,2.69 7.81,2.70 7.42,2.71 7.05,2.59 6.67,2.48 6.36,2.25 6.04,2.02 5.81,1.70 5.59,1.38 5.47,1.01 5.36,0.64 5.37,0.25 5.38,-0.13 5.52,-0.50 5.65,-0.87 5.90,-1.17 6.15,-1.47 6.48,-1.68 6.81,-1.89 7.18,-1.99 7.56,-2.08 7.95,-2.05 8.34,-2.01 8.70,-1.86 9.06,-1.70 9.35,-1.44 9.64,-1.18 9.83,-0.84 10.02,-0.50 10.09,-0.11 10.17,0.26 10.11,0.65 10.06,1.03 9.88,1.38 9.71,1.73 9.43,2.01 9.16,2.28 8.80,2.46 8.45,2.63 8.07,2.68 7.68,2.73 7.68,2.73 7.68,2.73 5.35,2.61 3.02,2.48 1.44,2.39 -0.13,2.31 -0.41,2.26 -0.68,2.21 -0.94,2.10 -1.19,1.98 -1.41,1.81 -1.63,1.64 -1.80,1.42 -1.98,1.20 -2.09,0.94 -2.21,0.69 -2.26,0.41 -2.31,0.14 -2.29,-0.13 -2.28,-0.41 -2.19,-0.68 -2.11,-0.94 -1.97,-1.18 -1.82,-1.42 -1.63,-1.62 -1.43,-1.82 -1.19,-1.96 -0.95,-2.11 -0.68,-2.19 -0.42,-2.28 -0.14,-2.29 0.13,-2.31 0.13,-2.31 L 0.13,-2.31 Z"></path></g><g transform="translate(67.71583739884363 22.961417307207228) rotate(0 3.070782060633178 0)" stroke="none"><path fill="#1e1e1e" d="M 0,-2.42 Q 0,-2.42 1.20,-2.45 2.41,-2.48 4.27,-2.52 6.14,-2.56 6.55,-2.49 6.95,-2.42 7.32,-2.23 7.69,-2.03 7.97,-1.73 8.26,-1.43 8.43,-1.06 8.61,-0.68 8.65,-0.27 8.69,0.13 8.61,0.54 8.52,0.94 8.30,1.30 8.09,1.65 7.77,1.92 7.46,2.19 7.07,2.34 6.69,2.50 6.27,2.52 5.86,2.54 5.46,2.43 5.06,2.32 4.72,2.09 4.37,1.85 4.12,1.52 3.87,1.19 3.74,0.80 3.61,0.41 3.61,-0.00 3.61,-0.41 3.74,-0.80 3.87,-1.20 4.12,-1.53 4.38,-1.86 4.72,-2.09 5.06,-2.32 5.46,-2.43 5.86,-2.54 6.27,-2.52 6.69,-2.50 7.07,-2.34 7.46,-2.19 7.77,-1.92 8.09,-1.65 8.30,-1.30 8.52,-0.94 8.61,-0.54 8.69,-0.13 8.65,0.27 8.60,0.68 8.43,1.06 8.26,1.43 7.97,1.73 7.69,2.03 7.32,2.23 6.95,2.42 6.54,2.49 6.14,2.56 6.14,2.56 6.14,2.56 4.27,2.52 2.41,2.48 1.20,2.45 0,2.42 -0.28,2.38 -0.57,2.35 -0.85,2.24 -1.12,2.14 -1.36,1.97 -1.60,1.81 -1.80,1.59 -1.99,1.37 -2.12,1.11 -2.26,0.85 -2.33,0.57 -2.40,0.29 -2.40,-0.00 -2.40,-0.29 -2.33,-0.57 -2.26,-0.85 -2.12,-1.11 -1.99,-1.37 -1.79,-1.59 -1.60,-1.81 -1.36,-1.97 -1.12,-2.14 -0.85,-2.24 -0.57,-2.35 -0.28,-2.38 0.00,-2.42 0.00,-2.42 L 0,-2.42 Z"></path></g></svg>