<svg version="1.1" xmlns="http://www.w3.org/2000/svg" viewBox="0 0 98.60590631367745 103.93512030104534" width="98.60590631367745" height="103.93512030104534">
  <!-- svg-source:excalidraw -->
  
  <defs>
    <style class="style-fonts">
      @font-face {
        font-family: "Virgil";
        src: url("https://excalidraw.com/Virgil.woff2");
      }
      @font-face {
        font-family: "Cascadia";
        src: url("https://excalidraw.com/Cascadia.woff2");
      }
      @font-face {
        font-family: "Assistant";
        src: url("https://excalidraw.com/Assistant-Regular.woff2");
      }
    </style>
    
  </defs>
  <rect x="0" y="0" width="98.60590631367745" height="103.93512030104534" fill="#ffffff"></rect><g transform="translate(40.64298042736573 15.107163404560993) rotate(0 8.659972729472997 36.86039674596168)" stroke="none"><path fill="#1e1e1e" d="M -2.12,1.45 Q -2.12,1.45 -3.03,0.01 -3.94,-1.42 -5.39,-1.83 -6.83,-2.23 -8.02,-1.68 -9.22,-1.13 -10.56,-0.56 -11.91,0.00 -12.80,1.65 -13.69,3.29 -14.10,4.46 -14.52,5.63 -14.67,6.75 -14.83,7.87 -14.84,8.97 -14.86,10.06 -14.83,11.52 -14.81,12.97 -14.80,14.12 -14.78,15.27 -14.09,16.74 -13.39,18.22 -12.65,20.08 -11.91,21.93 -12.60,23.85 -13.29,25.76 -14.31,26.97 -15.33,28.17 -16.51,29.13 -17.68,30.08 -19.07,31.24 -20.47,32.41 -22.34,33.61 -24.21,34.81 -25.76,35.71 -27.31,36.62 -24.14,42.07 -20.97,47.52 -17.07,53.46 -13.17,59.40 -10.10,63.81 -7.03,68.23 -4.95,70.94 -2.88,73.64 -1.95,74.29 -1.02,74.94 -1.18,73.09 -1.33,71.25 -1.16,64.32 -0.99,57.39 -0.88,53.46 -0.76,49.54 -0.86,47.67 -0.95,45.81 -1.10,44.93 -1.24,44.06 -1.23,43.82 -1.21,43.58 -1.14,43.35 -1.07,43.12 -0.95,42.91 -0.82,42.71 -0.65,42.54 -0.48,42.37 -0.28,42.24 -0.07,42.12 0.15,42.05 0.37,41.97 0.61,41.96 0.85,41.94 1.09,41.99 1.33,42.03 1.54,42.13 1.76,42.23 1.95,42.37 2.14,42.52 2.29,42.71 2.44,42.90 2.54,43.12 2.64,43.34 2.68,43.57 2.72,43.81 4.06,46.05 5.40,48.29 8.05,52.54 10.70,56.80 14.44,61.49 18.19,66.18 20.14,68.30 22.09,70.42 22.93,71.13 23.78,71.84 24.92,68.83 26.05,65.81 28.12,62.24 30.19,58.66 31.98,55.51 33.76,52.35 35.73,48.07 37.69,43.78 38.59,41.41 39.49,39.05 39.84,37.88 40.18,36.72 40.36,36.30 40.55,35.87 40.65,35.67 40.76,35.48 40.91,35.32 41.06,35.15 41.25,35.03 41.44,34.91 41.65,34.83 41.85,34.76 42.08,34.74 42.30,34.72 42.52,34.75 42.74,34.78 42.94,34.86 43.15,34.95 43.33,35.08 43.51,35.21 43.65,35.38 43.80,35.55 43.90,35.75 43.99,35.95 44.04,36.16 44.09,36.38 44.09,36.60 44.08,36.82 44.02,37.04 43.96,37.25 45.14,38.81 46.31,40.37 47.04,42.67 47.76,44.96 48.25,46.00 48.73,47.03 49.03,47.52 49.33,48.02 49.39,48.26 49.45,48.51 49.45,48.76 49.44,49.01 49.38,49.25 49.32,49.49 49.20,49.71 49.09,49.93 48.92,50.12 48.75,50.30 48.55,50.44 48.34,50.58 48.10,50.67 47.87,50.76 47.62,50.78 47.37,50.81 47.13,50.78 46.88,50.75 46.65,50.66 46.41,50.57 46.21,50.42 46.01,50.28 45.84,50.09 45.68,49.90 45.56,49.68 45.45,49.46 45.19,46.24 44.93,43.03 43.33,37.60 41.74,32.17 40.38,28.33 39.03,24.48 37.42,21.59 35.82,18.70 34.16,16.55 32.51,14.40 31.18,13.17 29.85,11.93 28.53,11.20 27.20,10.47 25.59,9.63 23.99,8.80 23.38,7.81 22.77,6.82 22.53,5.51 22.29,4.20 22.09,3.13 21.90,2.05 21.94,1.75 21.98,1.46 22.10,1.18 22.21,0.90 22.39,0.66 22.56,0.42 22.79,0.23 23.02,0.04 23.29,-0.09 23.56,-0.22 23.85,-0.28 24.14,-0.35 24.44,-0.34 24.74,-0.33 25.03,-0.25 25.32,-0.17 25.58,-0.03 25.84,0.11 26.06,0.31 26.28,0.52 26.44,0.77 26.60,1.02 26.70,1.30 26.80,1.58 26.83,1.88 26.86,2.18 25.24,3.90 23.62,5.61 20.79,7.72 17.96,9.84 16.56,10.96 15.16,12.09 12.63,12.80 10.10,13.52 9.01,12.10 7.93,10.69 7.00,8.00 6.08,5.31 5.63,3.01 5.18,0.71 4.57,-0.27 3.97,-1.25 1.34,-0.71 -1.28,-0.16 -1.68,-0.18 -2.09,-0.20 -2.47,-0.35 -2.85,-0.50 -3.16,-0.77 -3.47,-1.03 -3.68,-1.38 -3.89,-1.73 -3.98,-2.13 -4.06,-2.52 -4.02,-2.93 -3.97,-3.33 -3.80,-3.70 -3.63,-4.07 -3.35,-4.37 -3.07,-4.66 -2.71,-4.85 -2.35,-5.05 -1.95,-5.11 -1.55,-5.18 -1.15,-5.11 -0.74,-5.04 -0.38,-4.85 -0.03,-4.66 0.24,-4.37 0.52,-4.07 0.70,-3.70 0.87,-3.33 0.91,-2.93 0.95,-2.52 0.87,-2.12 0.78,-1.73 0.57,-1.38 0.36,-1.03 0.05,-0.77 -0.25,-0.50 -0.63,-0.35 -1.01,-0.20 -1.42,-0.18 -1.82,-0.16 -2.22,-0.27 -2.61,-0.38 -2.94,-0.60 -3.28,-0.83 -3.53,-1.16 -3.77,-1.48 -3.90,-1.87 -4.03,-2.25 -4.03,-2.66 -4.03,-3.07 -3.90,-3.45 -3.77,-3.84 -3.53,-4.16 -3.28,-4.49 -2.94,-4.72 -2.60,-4.94 -2.21,-5.05 -1.82,-5.16 -1.82,-5.16 -1.82,-5.16 -0.08,-5.30 1.65,-5.43 2.90,-5.46 4.15,-5.48 5.44,-4.97 6.72,-4.45 7.42,-3.52 8.13,-2.59 8.44,-1.35 8.74,-0.11 9.30,1.89 9.86,3.90 11.17,6.39 12.47,8.88 13.85,7.68 15.23,6.48 18.56,4.26 21.90,2.05 21.94,1.75 21.98,1.46 22.10,1.18 22.21,0.90 22.39,0.66 22.56,0.42 22.79,0.23 23.02,0.04 23.29,-0.09 23.56,-0.22 23.85,-0.28 24.14,-0.35 24.44,-0.34 24.74,-0.33 25.03,-0.25 25.32,-0.17 25.58,-0.03 25.84,0.11 26.06,0.31 26.28,0.52 26.44,0.77 26.60,1.02 26.70,1.30 26.80,1.58 26.83,1.88 26.86,2.18 26.93,2.34 27.00,2.50 26.80,4.16 26.61,5.82 27.77,6.75 28.94,7.68 30.44,8.72 31.94,9.75 33.37,11.18 34.80,12.61 36.62,14.91 38.44,17.22 40.21,20.30 41.98,23.39 43.46,27.29 44.94,31.20 46.71,36.80 48.49,42.41 48.91,45.21 49.33,48.02 49.39,48.26 49.45,48.51 49.45,48.76 49.44,49.01 49.38,49.25 49.32,49.49 49.20,49.71 49.09,49.93 48.92,50.12 48.75,50.30 48.55,50.44 48.34,50.58 48.10,50.67 47.87,50.76 47.62,50.78 47.37,50.81 47.13,50.78 46.88,50.75 46.65,50.66 46.41,50.57 46.21,50.42 46.01,50.28 45.84,50.09 45.68,49.90 45.56,49.68 45.45,49.46 45.28,48.91 45.12,48.36 44.80,47.24 44.49,46.12 43.64,43.94 42.79,41.76 42.28,40.34 41.76,38.93 41.16,37.40 40.55,35.87 40.65,35.67 40.76,35.48 40.91,35.32 41.06,35.15 41.25,35.03 41.44,34.91 41.65,34.83 41.85,34.76 42.08,34.74 42.30,34.72 42.52,34.75 42.74,34.78 42.94,34.86 43.15,34.95 43.33,35.08 43.51,35.21 43.65,35.38 43.80,35.55 43.90,35.75 43.99,35.95 44.04,36.16 44.09,36.38 44.09,36.60 44.08,36.82 44.02,37.04 43.96,37.25 43.64,37.63 43.32,38.00 42.78,39.03 42.24,40.06 41.35,42.54 40.46,45.03 38.51,49.45 36.57,53.88 34.87,57.10 33.17,60.32 31.24,63.94 29.31,67.56 27.88,70.37 26.46,73.18 25.38,74.00 24.30,74.82 22.97,74.62 21.64,74.42 20.78,73.44 19.92,72.46 17.85,70.29 15.77,68.13 11.85,63.35 7.94,58.57 5.17,54.35 2.40,50.13 0.58,47.09 -1.24,44.06 -1.23,43.82 -1.21,43.58 -1.14,43.35 -1.07,43.12 -0.95,42.91 -0.82,42.71 -0.65,42.54 -0.48,42.37 -0.28,42.24 -0.07,42.12 0.14,42.05 0.37,41.97 0.61,41.96 0.85,41.94 1.09,41.99 1.33,42.03 1.54,42.13 1.76,42.23 1.95,42.37 2.14,42.52 2.29,42.71 2.44,42.90 2.54,43.12 2.64,43.34 2.68,43.57 2.72,43.81 2.68,44.70 2.64,45.58 2.79,47.57 2.93,49.55 3.01,53.48 3.09,57.41 3.18,64.46 3.27,71.50 2.57,74.45 1.86,77.39 0.75,78.02 -0.36,78.64 -1.64,78.48 -2.92,78.32 -4.37,77.19 -5.82,76.07 -8.13,73.41 -10.45,70.75 -13.79,66.44 -17.13,62.14 -21.42,56.27 -25.72,50.40 -29.44,44.48 -33.16,38.55 -33.33,36.68 -33.50,34.81 -32.70,33.39 -31.91,31.98 -30.57,31.09 -29.23,30.21 -27.49,29.14 -25.76,28.08 -24.53,27.28 -23.30,26.49 -21.88,25.22 -20.47,23.95 -19.75,23.15 -19.04,22.34 -19.59,21.18 -20.15,20.02 -20.72,18.59 -21.28,17.15 -21.45,15.61 -21.61,14.06 -21.60,12.97 -21.58,11.88 -21.53,10.53 -21.48,9.18 -21.36,7.93 -21.23,6.69 -20.90,5.08 -20.57,3.48 -19.91,1.85 -19.26,0.22 -18.52,-1.10 -17.77,-2.44 -16.56,-3.80 -15.35,-5.15 -14.07,-5.64 -12.78,-6.12 -11.17,-6.65 -9.56,-7.18 -8.24,-7.56 -6.91,-7.94 -5.66,-7.85 -4.41,-7.76 -3.09,-7.18 -1.77,-6.61 -0.82,-5.40 0.11,-4.19 1.12,-2.82 2.12,-1.45 2.26,-1.17 2.41,-0.89 2.48,-0.59 2.55,-0.29 2.55,0.01 2.55,0.32 2.47,0.62 2.40,0.92 2.25,1.20 2.11,1.47 1.90,1.70 1.69,1.93 1.43,2.11 1.18,2.28 0.89,2.39 0.60,2.50 0.29,2.53 -0.01,2.57 -0.32,2.53 -0.63,2.49 -0.92,2.38 -1.20,2.27 -1.46,2.09 -1.71,1.91 -1.92,1.68 -2.12,1.45 -2.12,1.45 L -2.12,1.45 Z"></path></g><g transform="translate(38.444727356019484 40.44785829935313) rotate(0 0 -0.09908065571272573)" stroke="none"><path fill="#1e1e1e" d="M -2.28,-0.45 Q -2.28,-0.45 -2.13,-1.45 -1.98,-2.45 -1.84,-2.82 -1.70,-3.19 -1.45,-3.49 -1.20,-3.80 -0.87,-4.00 -0.54,-4.21 -0.16,-4.30 0.21,-4.40 0.60,-4.36 1.00,-4.33 1.35,-4.17 1.71,-4.01 2.00,-3.75 2.29,-3.48 2.48,-3.14 2.68,-2.80 2.75,-2.41 2.82,-2.02 2.76,-1.63 2.70,-1.25 2.53,-0.90 2.35,-0.55 2.07,-0.27 1.79,0.00 1.44,0.17 1.08,0.34 0.70,0.39 0.31,0.44 -0.07,0.36 -0.45,0.28 -0.79,0.09 -1.13,-0.10 -1.39,-0.39 -1.65,-0.69 -1.81,-1.05 -1.96,-1.41 -1.99,-1.80 -2.02,-2.19 -1.92,-2.57 -1.82,-2.95 -1.61,-3.28 -1.39,-3.61 -1.08,-3.85 -0.78,-4.10 -0.41,-4.23 -0.04,-4.36 0.35,-4.37 0.74,-4.38 1.11,-4.26 1.49,-4.14 1.80,-3.91 2.12,-3.68 2.35,-3.36 2.57,-3.04 2.69,-2.66 2.80,-2.28 2.78,-1.89 2.77,-1.50 2.77,-1.50 2.77,-1.50 2.53,-0.52 2.28,0.45 2.19,0.72 2.10,0.99 1.96,1.22 1.81,1.46 1.60,1.66 1.40,1.85 1.16,1.99 0.92,2.14 0.65,2.22 0.38,2.29 0.10,2.31 -0.17,2.32 -0.45,2.26 -0.72,2.21 -0.98,2.09 -1.23,1.97 -1.45,1.79 -1.67,1.62 -1.84,1.39 -2.01,1.17 -2.12,0.91 -2.23,0.65 -2.28,0.38 -2.32,0.10 -2.30,-0.17 -2.28,-0.45 -2.28,-0.45 L -2.28,-0.45 Z"></path></g><g transform="translate(64.40385915275692 41.83498747933152) rotate(0 -1.6843711471166216 0.5944839342764112)" stroke="none"><path fill="#1e1e1e" d="M 1.21,2.03 Q 1.21,2.03 -0.68,2.89 -2.58,3.76 -2.97,3.79 -3.37,3.82 -3.75,3.72 -4.14,3.63 -4.47,3.42 -4.80,3.20 -5.05,2.89 -5.30,2.58 -5.43,2.21 -5.57,1.84 -5.58,1.44 -5.59,1.05 -5.47,0.67 -5.36,0.29 -5.12,-0.02 -4.89,-0.34 -4.57,-0.57 -4.25,-0.80 -3.87,-0.92 -3.49,-1.03 -3.10,-1.02 -2.70,-1.01 -2.33,-0.87 -1.96,-0.74 -1.65,-0.49 -1.34,-0.24 -1.13,0.08 -0.92,0.42 -0.82,0.80 -0.73,1.19 -0.76,1.58 -0.79,1.98 -0.95,2.34 -1.11,2.70 -1.37,3.00 -1.64,3.29 -1.98,3.49 -2.32,3.68 -2.71,3.75 -3.10,3.83 -3.49,3.77 -3.89,3.72 -4.24,3.54 -4.60,3.37 -4.88,3.09 -5.15,2.81 -5.33,2.45 -5.51,2.10 -5.56,1.70 -5.61,1.31 -5.54,0.92 -5.46,0.54 -5.27,0.19 -5.07,-0.14 -4.78,-0.41 -4.48,-0.67 -4.12,-0.83 -3.75,-0.98 -3.75,-0.98 -3.75,-0.98 -2.48,-1.51 -1.21,-2.03 -0.95,-2.14 -0.69,-2.26 -0.41,-2.31 -0.13,-2.36 0.14,-2.34 0.43,-2.33 0.70,-2.24 0.98,-2.15 1.22,-2.01 1.46,-1.86 1.66,-1.65 1.87,-1.45 2.01,-1.21 2.16,-0.96 2.24,-0.69 2.33,-0.41 2.34,-0.13 2.36,0.15 2.31,0.43 2.26,0.71 2.14,0.97 2.02,1.23 1.84,1.45 1.67,1.68 1.44,1.85 1.21,2.03 1.21,2.03 L 1.21,2.03 Z"></path></g><g transform="translate(55.37534202838583 51.25944621146357) rotate(0 -6.868883388537711 4.088621064605775)" stroke="none"><path fill="#1e1e1e" d="M -1.06,2.39 Q -1.06,2.39 -1.92,2.05 -2.78,1.70 -4.08,1.51 -5.37,1.33 -6.87,1.34 -8.37,1.35 -9.72,1.31 -11.07,1.26 -12.61,1.30 -14.14,1.34 -14.61,2.53 -15.08,3.72 -13.74,3.89 -12.40,4.06 -10.16,4.29 -7.91,4.51 -6.49,4.72 -5.07,4.92 -3.50,5.35 -1.93,5.78 -0.85,6.01 0.22,6.24 1.31,6.43 2.40,6.63 3.74,5.77 5.08,4.91 5.42,5.02 5.76,5.12 6.07,5.30 6.38,5.48 6.64,5.73 6.90,5.98 7.08,6.29 7.27,6.59 7.38,6.93 7.49,7.28 7.52,7.63 7.55,7.99 7.49,8.34 7.42,8.70 7.28,9.03 7.14,9.36 6.92,9.64 6.70,9.92 6.42,10.15 6.14,10.37 5.82,10.52 5.49,10.68 5.14,10.74 4.79,10.81 4.43,10.80 4.07,10.78 2.95,8.73 1.84,6.68 2.09,6.27 2.35,5.87 2.73,5.56 3.10,5.26 3.55,5.09 4.00,4.93 4.48,4.91 4.96,4.90 5.43,5.04 5.89,5.17 6.28,5.45 6.67,5.73 6.95,6.12 7.23,6.51 7.38,6.97 7.52,7.43 7.51,7.91 7.50,8.40 7.33,8.85 7.17,9.30 6.87,9.68 6.57,10.05 6.16,10.31 5.76,10.57 5.29,10.69 4.83,10.81 4.35,10.77 3.87,10.74 3.42,10.55 2.98,10.36 2.62,10.04 2.26,9.72 2.02,9.30 1.79,8.88 1.69,8.41 1.60,7.94 1.66,7.46 1.73,6.98 1.94,6.55 2.15,6.12 2.49,5.78 2.83,5.43 3.26,5.22 3.69,5.00 4.17,4.94 4.64,4.87 5.12,4.96 5.59,5.05 6.01,5.28 6.43,5.52 6.75,5.88 7.08,6.23 7.27,6.68 7.46,7.12 7.50,7.60 7.54,8.08 6.31,6.49 5.08,4.91 5.42,5.02 5.76,5.12 6.07,5.30 6.38,5.48 6.64,5.73 6.90,5.98 7.08,6.29 7.27,6.59 7.38,6.93 7.49,7.28 7.52,7.63 7.55,7.99 7.49,8.34 7.42,8.70 7.28,9.03 7.14,9.36 6.92,9.64 6.70,9.92 6.42,10.15 6.14,10.37 5.82,10.52 5.49,10.68 5.14,10.74 4.79,10.81 4.43,10.80 4.07,10.78 2.74,11.59 1.41,12.41 0.21,12.21 -0.98,12.01 -2.18,11.76 -3.38,11.52 -4.54,11.25 -5.69,10.99 -7.13,10.91 -8.57,10.82 -9.64,10.73 -10.71,10.64 -12.03,10.60 -13.35,10.55 -14.62,10.35 -15.89,10.14 -17.27,9.61 -18.64,9.07 -19.97,7.36 -21.30,5.66 -21.21,3.78 -21.11,1.90 -20.45,0.63 -19.80,-0.62 -19.24,-1.54 -18.68,-2.46 -17.78,-3.20 -16.87,-3.94 -15.52,-4.27 -14.18,-4.60 -12.60,-4.55 -11.03,-4.51 -9.64,-4.53 -8.24,-4.55 -7.17,-4.52 -6.09,-4.49 -4.74,-4.25 -3.39,-4.02 -1.99,-3.61 -0.60,-3.21 0.23,-2.80 1.06,-2.39 1.33,-2.23 1.60,-2.06 1.82,-1.84 2.05,-1.62 2.21,-1.35 2.38,-1.08 2.47,-0.78 2.57,-0.48 2.59,-0.16 2.61,0.14 2.55,0.45 2.50,0.76 2.37,1.05 2.24,1.34 2.05,1.59 1.86,1.84 1.61,2.03 1.36,2.23 1.07,2.36 0.79,2.49 0.48,2.55 0.17,2.61 -0.14,2.59 -0.46,2.57 -0.76,2.48 -1.06,2.39 -1.06,2.39 L -1.06,2.39 Z"></path></g><g transform="translate(60.93586667624959 62.05340582202274) rotate(0 -3.5979865368531136 -5.233434962695355)" stroke="none"><path fill="#1e1e1e" d="M -2.63,0 Q -2.63,0 -2.66,-1.03 -2.69,-2.06 -3.02,-3.39 -3.35,-4.72 -4.13,-5.77 -4.91,-6.81 -6.15,-7.05 -7.38,-7.30 -7.88,-7.41 -8.38,-7.52 -8.82,-7.79 -9.26,-8.06 -9.59,-8.45 -9.92,-8.84 -10.10,-9.32 -10.29,-9.80 -10.32,-10.31 -10.34,-10.82 -10.20,-11.32 -10.06,-11.81 -9.77,-12.23 -9.48,-12.65 -9.07,-12.96 -8.66,-13.27 -8.17,-13.43 -7.69,-13.59 -7.17,-13.59 -6.66,-13.59 -6.18,-13.42 -5.69,-13.25 -5.28,-12.94 -4.88,-12.63 -4.59,-12.20 -4.31,-11.78 -4.17,-11.28 -4.04,-10.79 -4.07,-10.28 -4.10,-9.76 -4.29,-9.29 -4.48,-8.81 -4.82,-8.42 -5.15,-8.03 -5.59,-7.77 -6.03,-7.51 -6.54,-7.40 -7.04,-7.30 -7.55,-7.35 -8.06,-7.41 -8.52,-7.63 -8.99,-7.85 -9.36,-8.20 -9.73,-8.56 -9.96,-9.01 -10.20,-9.47 -10.28,-9.97 -10.36,-10.48 -10.28,-10.99 -10.19,-11.49 -9.95,-11.94 -9.70,-12.39 -9.33,-12.75 -8.96,-13.10 -8.49,-13.31 -8.02,-13.52 -7.51,-13.57 -7.00,-13.63 -7.00,-13.63 -7.00,-13.63 -3.87,-12.51 -0.73,-11.40 0.49,-9.84 1.73,-8.27 2.03,-6.91 2.32,-5.55 2.50,-3.81 2.69,-2.06 2.66,-1.03 2.63,0 2.59,0.31 2.55,0.63 2.44,0.92 2.33,1.22 2.15,1.48 1.97,1.74 1.73,1.95 1.49,2.16 1.21,2.31 0.93,2.46 0.62,2.53 0.31,2.61 -0.00,2.61 -0.31,2.61 -0.62,2.53 -0.93,2.46 -1.21,2.31 -1.49,2.16 -1.73,1.95 -1.97,1.74 -2.15,1.48 -2.33,1.22 -2.44,0.92 -2.55,0.62 -2.59,0.31 -2.63,-0.00 -2.63,-0.00 L -2.63,0 Z"></path></g><g transform="translate(60.281687305912556 63.68885424786504) rotate(0 0.00004999999998744897 0.00004999999998744897)" stroke="none"><path fill="#1e1e1e" d="M 1.57,-1.57 Q 1.57,-1.57 1.77,-1.27 1.98,-0.98 2.09,-0.64 2.20,-0.29 2.19,0.05 2.18,0.41 2.05,0.75 1.93,1.09 1.70,1.37 1.48,1.65 1.18,1.84 0.87,2.04 0.52,2.12 0.18,2.21 -0.17,2.18 -0.53,2.15 -0.86,2.01 -1.19,1.87 -1.46,1.63 -1.73,1.39 -1.90,1.07 -2.08,0.76 -2.15,0.41 -2.21,0.05 -2.17,-0.29 -2.12,-0.65 -1.96,-0.97 -1.80,-1.29 -1.54,-1.54 -1.29,-1.80 -0.97,-1.96 -0.65,-2.12 -0.29,-2.17 0.06,-2.21 0.41,-2.15 0.76,-2.08 1.07,-1.90 1.39,-1.73 1.63,-1.46 1.87,-1.19 2.01,-0.86 2.15,-0.53 2.18,-0.17 2.21,0.18 2.12,0.52 2.03,0.87 1.84,1.18 1.65,1.48 1.37,1.70 1.09,1.93 0.75,2.05 0.41,2.18 0.05,2.19 -0.30,2.20 -0.64,2.09 -0.98,1.98 -1.27,1.77 -1.57,1.56 -1.57,1.57 -1.57,1.57 -1.73,1.35 -1.90,1.14 -2.01,0.90 -2.12,0.66 -2.16,0.39 -2.21,0.13 -2.20,-0.13 -2.18,-0.40 -2.10,-0.65 -2.02,-0.91 -1.88,-1.14 -1.74,-1.36 -1.55,-1.55 -1.36,-1.74 -1.14,-1.88 -0.91,-2.02 -0.65,-2.10 -0.40,-2.18 -0.13,-2.20 0.13,-2.21 0.39,-2.16 0.66,-2.12 0.90,-2.01 1.14,-1.90 1.35,-1.73 1.57,-1.57 1.57,-1.57 L 1.57,-1.57 Z"></path></g></svg>