<svg version="1.1" xmlns="http://www.w3.org/2000/svg" viewBox="0 0 73.98111622376223 97.5776520581012" width="73.98111622376223" height="97.5776520581012">
  <!-- svg-source:excalidraw -->
  
  <defs>
    <style class="style-fonts">
      @font-face {
        font-family: "Virgil";
        src: url("https://excalidraw.com/Virgil.woff2");
      }
      @font-face {
        font-family: "Cascadia";
        src: url("https://excalidraw.com/Cascadia.woff2");
      }
      @font-face {
        font-family: "Assistant";
        src: url("https://excalidraw.com/Assistant-Regular.woff2");
      }
    </style>
    
  </defs>
  <rect x="0" y="0" width="73.98111622376223" height="97.5776520581012" fill="none"></rect><g transform="translate(32.626815183612734 13.23240216908755) rotate(0 0.808100542271859 11.313407591806424)" stroke="none"><path fill="#1e1e1e" d="M 1.91,-0.22 Q 1.91,-0.22 2.29,3.68 2.68,7.59 2.82,11.17 2.96,14.74 3.00,17.00 3.04,19.25 3.16,20.91 3.29,22.56 3.25,22.83 3.22,23.10 3.10,23.34 2.98,23.59 2.79,23.78 2.60,23.97 2.36,24.10 2.12,24.22 1.85,24.26 1.58,24.30 1.32,24.25 1.05,24.20 0.81,24.07 0.57,23.94 0.39,23.74 0.21,23.54 0.10,23.29 -0.00,23.04 -0.03,22.77 -0.05,22.50 0.00,22.24 0.06,21.97 0.21,21.74 0.35,21.51 0.56,21.34 0.77,21.17 1.02,21.07 1.28,20.98 1.55,20.97 1.82,20.96 2.08,21.03 2.34,21.11 2.56,21.27 2.79,21.42 2.95,21.64 3.11,21.86 3.19,22.12 3.27,22.38 3.27,22.65 3.26,22.92 3.17,23.18 3.08,23.43 2.91,23.65 2.74,23.86 2.52,24.01 2.29,24.16 2.03,24.22 1.76,24.29 1.49,24.27 1.22,24.25 0.97,24.15 0.72,24.04 0.52,23.87 0.31,23.69 0.18,23.45 0.04,23.22 -0.00,22.95 -0.06,22.68 -0.06,22.68 -0.06,22.68 -0.06,21.03 -0.05,19.37 -0.18,17.15 -0.31,14.93 -0.56,11.47 -0.82,8.01 -1.36,4.12 -1.91,0.22 -1.91,-0.00 -1.91,-0.23 -1.85,-0.46 -1.80,-0.68 -1.69,-0.89 -1.58,-1.10 -1.43,-1.27 -1.27,-1.44 -1.08,-1.57 -0.89,-1.71 -0.67,-1.79 -0.45,-1.87 -0.22,-1.90 0.00,-1.93 0.23,-1.90 0.46,-1.87 0.68,-1.79 0.90,-1.70 1.09,-1.57 1.28,-1.44 1.43,-1.26 1.59,-1.09 1.69,-0.88 1.80,-0.68 1.86,-0.45 1.91,-0.22 1.91,-0.22 L 1.91,-0.22 Z"></path></g><g transform="translate(34.24301626815645 37.79865865415297) rotate(0 0 6.626424446629471)" stroke="none"><path fill="#1e1e1e" d="M 2.05,0 Q 2.05,0 1.95,3.06 1.85,6.13 1.80,8.18 1.75,10.22 1.81,11.73 1.87,13.25 1.82,13.55 1.77,13.85 1.63,14.11 1.49,14.38 1.27,14.59 1.05,14.80 0.77,14.92 0.50,15.05 0.19,15.08 -0.10,15.12 -0.39,15.05 -0.69,14.99 -0.95,14.83 -1.21,14.67 -1.40,14.44 -1.60,14.21 -1.71,13.93 -1.82,13.65 -1.84,13.35 -1.86,13.05 -1.77,12.75 -1.69,12.46 -1.52,12.21 -1.35,11.96 -1.11,11.78 -0.87,11.59 -0.58,11.50 -0.30,11.40 0.00,11.40 0.30,11.40 0.59,11.50 0.87,11.59 1.11,11.78 1.35,11.96 1.52,12.21 1.69,12.46 1.77,12.75 1.86,13.05 1.84,13.35 1.82,13.65 1.71,13.93 1.60,14.21 1.40,14.44 1.21,14.67 0.95,14.83 0.69,14.99 0.39,15.05 0.10,15.12 -0.20,15.08 -0.50,15.05 -0.77,14.92 -1.05,14.80 -1.27,14.59 -1.49,14.38 -1.63,14.11 -1.77,13.84 -1.82,13.55 -1.87,13.25 -1.87,13.25 -1.87,13.25 -1.81,11.73 -1.75,10.22 -1.80,8.18 -1.85,6.13 -1.95,3.06 -2.05,0 -2.02,-0.24 -1.99,-0.49 -1.90,-0.72 -1.81,-0.95 -1.67,-1.15 -1.53,-1.36 -1.35,-1.52 -1.16,-1.68 -0.94,-1.80 -0.72,-1.91 -0.48,-1.97 -0.24,-2.03 0.00,-2.03 0.24,-2.03 0.48,-1.97 0.72,-1.91 0.94,-1.80 1.16,-1.68 1.35,-1.52 1.53,-1.36 1.67,-1.15 1.81,-0.95 1.90,-0.72 1.99,-0.49 2.02,-0.24 2.05,0.00 2.05,0.00 L 2.05,0 Z"></path></g><g transform="translate(32.95005540052148 52.02122819813815) rotate(0 -2.424301626815577 16.970111387709665)" stroke="none"><path fill="#1e1e1e" d="M 1.56,1.56 Q 1.56,1.56 -0.38,3.33 -2.32,5.11 -4.19,6.75 -6.06,8.40 -6.79,10.21 -7.52,12.02 -7.95,13.83 -8.39,15.63 -8.47,16.77 -8.56,17.90 -8.11,19.17 -7.66,20.43 -7.33,21.62 -7.00,22.81 -6.85,23.98 -6.70,25.16 -6.70,26.96 -6.70,28.75 -6.44,29.84 -6.18,30.93 -5.68,31.87 -5.17,32.80 -4.08,32.21 -3.00,31.63 -1.30,31.33 0.39,31.03 1.43,30.32 2.47,29.61 2.63,28.00 2.79,26.39 3.02,22.10 3.25,17.82 3.41,14.92 3.58,12.03 3.66,10.06 3.74,8.08 3.52,6.50 3.31,4.92 2.77,1.75 2.23,-1.40 2.26,-1.83 2.30,-2.25 2.47,-2.64 2.63,-3.03 2.92,-3.35 3.20,-3.66 3.57,-3.87 3.94,-4.08 4.36,-4.16 4.78,-4.24 5.20,-4.18 5.62,-4.12 6.00,-3.93 6.38,-3.74 6.68,-3.44 6.98,-3.14 7.17,-2.76 7.36,-2.38 7.41,-1.96 7.47,-1.54 7.39,-1.12 7.31,-0.70 7.10,-0.33 6.89,0.03 6.57,0.31 6.25,0.59 5.86,0.76 5.47,0.93 5.05,0.96 4.63,1.00 4.21,0.89 3.80,0.79 3.44,0.56 3.09,0.33 2.82,0.00 2.56,-0.32 2.41,-0.72 2.26,-1.12 2.25,-1.55 2.24,-1.97 2.37,-2.38 2.49,-2.78 2.74,-3.13 2.99,-3.47 3.34,-3.72 3.68,-3.97 4.09,-4.09 4.49,-4.21 4.92,-4.20 5.34,-4.19 5.74,-4.04 6.14,-3.89 6.47,-3.63 6.80,-3.36 7.03,-3.00 7.26,-2.64 7.36,-2.23 7.46,-1.82 7.46,-1.82 7.46,-1.82 7.70,1.23 7.95,4.30 7.91,6.19 7.88,8.09 7.96,10.06 8.03,12.04 8.19,14.94 8.34,17.83 8.49,22.22 8.65,26.61 8.65,28.68 8.66,30.75 8.12,32.01 7.58,33.26 6.62,34.14 5.66,35.02 3.54,35.96 1.43,36.90 -0.52,37.47 -2.48,38.04 -3.55,38.20 -4.62,38.36 -5.70,38.18 -6.77,38.00 -8.47,36.71 -10.18,35.43 -10.68,33.96 -11.19,32.50 -11.37,30.70 -11.54,28.90 -11.64,27.28 -11.74,25.66 -11.80,24.11 -11.85,22.56 -12.03,21.36 -12.21,20.17 -12.20,18.76 -12.19,17.36 -11.88,16.11 -11.58,14.87 -11.09,12.82 -10.61,10.78 -9.61,8.34 -8.61,5.90 -6.86,4.11 -5.11,2.32 -3.33,0.38 -1.56,-1.56 -1.35,-1.72 -1.14,-1.89 -0.90,-2.00 -0.65,-2.10 -0.39,-2.15 -0.13,-2.20 0.13,-2.18 0.39,-2.17 0.65,-2.09 0.90,-2.01 1.13,-1.87 1.36,-1.73 1.55,-1.55 1.73,-1.36 1.87,-1.13 2.01,-0.90 2.09,-0.65 2.17,-0.39 2.18,-0.13 2.20,0.13 2.15,0.39 2.10,0.65 1.99,0.90 1.89,1.14 1.72,1.35 1.56,1.56 1.56,1.56 L 1.56,1.56 Z"></path></g><g transform="translate(35.53597713579188 50.40502711359443) rotate(0 14.222569543985173 16.485251062346435)" stroke="none"><path fill="#1e1e1e" d="M -0.27,-1.95 Q -0.27,-1.95 2.33,-2.23 4.95,-2.52 8.65,-2.62 12.36,-2.72 14.74,-2.74 17.13,-2.76 19.39,-2.66 21.65,-2.56 23.80,-2.21 25.95,-1.86 26.70,0.05 27.44,1.97 27.71,3.10 27.98,4.23 28.15,6.41 28.31,8.59 28.53,11.37 28.75,14.15 29.10,16.78 29.44,19.42 29.70,20.84 29.96,22.26 30.12,23.56 30.28,24.86 30.24,26.60 30.20,28.35 29.05,30.73 27.89,33.12 24.94,34.06 21.98,35.00 18.97,34.63 15.95,34.27 14.30,33.89 12.64,33.52 11.29,31.99 9.95,30.46 9.33,28.74 8.71,27.03 8.37,25.36 8.04,23.69 7.67,21.95 7.31,20.20 6.97,18.40 6.63,16.59 6.41,14.65 6.19,12.71 6.11,10.72 6.03,8.74 5.92,7.35 5.81,5.97 5.27,3.25 4.74,0.53 4.66,0.18 4.57,-0.16 4.61,-0.52 4.64,-0.88 4.78,-1.20 4.93,-1.53 5.17,-1.80 5.41,-2.06 5.73,-2.23 6.04,-2.41 6.39,-2.47 6.75,-2.53 7.10,-2.48 7.46,-2.43 7.78,-2.27 8.09,-2.10 8.35,-1.85 8.60,-1.59 8.75,-1.27 8.91,-0.95 8.95,-0.59 9.00,-0.24 8.93,0.11 8.85,0.46 8.68,0.77 8.50,1.08 8.23,1.31 7.96,1.55 7.63,1.69 7.30,1.83 6.94,1.85 6.58,1.88 6.23,1.79 5.89,1.70 5.59,1.50 5.29,1.31 5.06,1.02 4.84,0.74 4.72,0.40 4.60,0.07 4.60,-0.28 4.59,-0.64 4.70,-0.98 4.81,-1.32 5.02,-1.61 5.23,-1.90 5.53,-2.11 5.82,-2.31 6.16,-2.42 6.51,-2.52 6.87,-2.50 7.22,-2.49 7.56,-2.36 7.89,-2.24 8.17,-2.01 8.45,-1.78 8.64,-1.48 8.83,-1.17 8.83,-1.17 8.83,-1.17 9.18,1.10 9.53,3.39 9.68,4.61 9.83,5.83 9.81,7.18 9.79,8.53 9.91,10.37 10.04,12.20 10.31,14.00 10.58,15.80 10.95,17.55 11.32,19.29 11.77,21.10 12.21,22.91 12.45,24.34 12.69,25.77 13.40,27.94 14.11,30.12 15.25,30.38 16.38,30.63 18.63,30.89 20.89,31.14 23.55,29.67 26.22,28.19 26.30,26.64 26.38,25.09 26.40,23.89 26.41,22.69 26.33,21.30 26.24,19.90 25.78,17.21 25.31,14.52 24.94,11.78 24.57,9.04 24.13,5.98 23.69,2.92 22.63,1.67 21.56,0.43 19.39,0.40 17.22,0.37 14.86,0.49 12.50,0.60 8.98,0.82 5.45,1.03 2.86,1.49 0.27,1.95 0.04,1.96 -0.19,1.96 -0.42,1.91 -0.66,1.86 -0.87,1.75 -1.08,1.64 -1.26,1.49 -1.45,1.34 -1.59,1.14 -1.72,0.95 -1.81,0.73 -1.90,0.51 -1.94,0.27 -1.97,0.04 -1.95,-0.19 -1.92,-0.43 -1.84,-0.65 -1.76,-0.88 -1.63,-1.07 -1.50,-1.27 -1.33,-1.44 -1.15,-1.60 -0.94,-1.71 -0.73,-1.83 -0.50,-1.89 -0.27,-1.95 -0.27,-1.95 L -0.27,-1.95 Z"></path></g><g transform="translate(52.02122819813826 62.04167492230954) rotate(0 3.8788826029051506 7.9193853142645025)" stroke="none"><path fill="#1e1e1e" d="M 2.11,0.22 Q 2.11,0.22 1.63,3.65 1.15,7.08 0.92,9.51 0.68,11.94 1.45,12.83 2.21,13.72 3.49,12.97 4.77,12.22 5.31,11.08 5.86,9.94 6.16,8.44 6.47,6.95 6.09,5.77 5.72,4.59 4.89,3.73 4.06,2.86 2.08,2.61 0.11,2.36 -0.27,2.32 -0.65,2.27 -0.99,2.11 -1.34,1.95 -1.62,1.68 -1.89,1.41 -2.07,1.07 -2.25,0.73 -2.30,0.36 -2.36,-0.01 -2.30,-0.39 -2.23,-0.77 -2.05,-1.11 -1.87,-1.44 -1.59,-1.70 -1.31,-1.97 -0.96,-2.12 -0.61,-2.28 -0.23,-2.32 0.14,-2.36 0.51,-2.27 0.89,-2.19 1.22,-1.99 1.54,-1.79 1.79,-1.50 2.03,-1.20 2.17,-0.84 2.31,-0.49 2.33,-0.10 2.35,0.27 2.24,0.64 2.14,1.01 1.92,1.32 1.70,1.64 1.40,1.87 1.09,2.10 0.72,2.22 0.36,2.34 -0.01,2.33 -0.40,2.33 -0.76,2.20 -1.12,2.08 -1.42,1.85 -1.73,1.61 -1.94,1.29 -2.15,0.97 -2.25,0.60 -2.35,0.23 -2.33,-0.14 -2.30,-0.52 -2.16,-0.88 -2.02,-1.23 -1.77,-1.52 -1.51,-1.81 -1.18,-2.01 -0.85,-2.20 -0.48,-2.28 -0.10,-2.36 -0.11,-2.36 -0.11,-2.36 2.48,-1.98 5.08,-1.60 6.20,-0.71 7.31,0.17 8.50,1.80 9.69,3.43 10.13,5.51 10.56,7.58 10.14,9.79 9.73,12.01 8.58,13.91 7.43,15.82 5.74,16.72 4.05,17.62 2.13,17.44 0.21,17.25 -1.05,16.03 -2.32,14.82 -2.56,13.28 -2.80,11.74 -2.72,9.20 -2.64,6.67 -2.38,3.22 -2.11,-0.22 -2.06,-0.47 -2.00,-0.72 -1.88,-0.95 -1.76,-1.18 -1.60,-1.38 -1.43,-1.57 -1.22,-1.72 -1.01,-1.87 -0.77,-1.96 -0.53,-2.06 -0.28,-2.09 -0.02,-2.13 0.22,-2.10 0.48,-2.07 0.72,-1.98 0.96,-1.89 1.17,-1.75 1.39,-1.61 1.56,-1.42 1.73,-1.23 1.86,-1.00 1.98,-0.78 2.04,-0.53 2.11,-0.28 2.11,-0.02 2.11,0.22 2.11,0.22 L 2.11,0.22 Z"></path></g><g transform="translate(29.717653231434042 68.50647926048464) rotate(0 0.9697206507264582 6.949664663538243)" stroke="none"><path fill="#1e1e1e" d="M 1.84,0.76 Q 1.84,0.76 0.64,3.42 -0.55,6.08 -1.02,7.70 -1.48,9.33 -0.30,10.05 0.87,10.78 1.63,9.80 2.39,8.83 2.58,6.87 2.76,4.91 1.86,4.01 0.97,3.11 -0.12,2.29 -1.22,1.46 -1.42,1.23 -1.62,1.00 -1.74,0.71 -1.86,0.42 -1.88,0.11 -1.90,-0.18 -1.82,-0.48 -1.74,-0.78 -1.57,-1.04 -1.39,-1.30 -1.15,-1.49 -0.91,-1.68 -0.61,-1.78 -0.32,-1.88 -0.01,-1.88 0.29,-1.88 0.58,-1.79 0.87,-1.69 1.12,-1.51 1.37,-1.32 1.55,-1.07 1.72,-0.81 1.81,-0.52 1.89,-0.22 1.88,0.08 1.87,0.39 1.75,0.68 1.64,0.97 1.44,1.20 1.25,1.44 0.98,1.60 0.72,1.76 0.42,1.83 0.12,1.90 -0.18,1.87 -0.49,1.84 -0.77,1.71 -1.05,1.59 -1.28,1.38 -1.51,1.17 -1.65,0.89 -1.80,0.62 -1.85,0.32 -1.91,0.01 -1.86,-0.28 -1.81,-0.59 -1.67,-0.86 -1.53,-1.14 -1.30,-1.35 -1.08,-1.57 -0.80,-1.70 -0.52,-1.83 -0.22,-1.87 0.08,-1.90 0.38,-1.84 0.69,-1.78 0.95,-1.62 1.22,-1.46 1.22,-1.46 1.22,-1.46 2.56,-0.25 3.91,0.95 5.00,2.80 6.10,4.66 5.72,7.86 5.34,11.06 3.46,12.63 1.59,14.19 -0.73,13.65 -3.05,13.12 -3.96,11.06 -4.86,9.00 -4.38,6.85 -3.90,4.69 -2.87,1.96 -1.84,-0.76 -1.72,-0.97 -1.60,-1.18 -1.44,-1.35 -1.27,-1.53 -1.07,-1.66 -0.87,-1.79 -0.64,-1.87 -0.41,-1.95 -0.18,-1.97 0.05,-1.99 0.29,-1.96 0.53,-1.92 0.75,-1.83 0.98,-1.74 1.17,-1.59 1.36,-1.45 1.52,-1.27 1.67,-1.08 1.78,-0.86 1.88,-0.65 1.93,-0.41 1.98,-0.18 1.98,0.05 1.97,0.30 1.91,0.53 1.84,0.76 1.84,0.76 L 1.84,0.76 Z"></path></g><g transform="translate(33.27329561743022 45.55642385996305) rotate(0 13.576089110167686 -17.778211929981524)" stroke="none"><path fill="#1e1e1e" d="M -1.71,-0.44 Q -1.71,-0.44 -1.00,-2.93 -0.29,-5.43 0.20,-8.09 0.69,-10.75 1.87,-14.60 3.05,-18.45 4.69,-22.43 6.32,-26.41 7.58,-29.21 8.84,-32.01 9.40,-33.22 9.95,-34.44 10.96,-35.15 11.97,-35.87 14.33,-35.12 16.69,-34.37 18.88,-33.65 21.06,-32.92 22.27,-32.73 23.48,-32.55 24.55,-32.42 25.62,-32.30 26.78,-31.51 27.95,-30.72 28.13,-28.15 28.32,-25.59 27.71,-23.45 27.10,-21.31 24.49,-17.17 21.87,-13.03 20.01,-10.13 18.15,-7.24 17.98,-7.04 17.81,-6.85 17.59,-6.72 17.37,-6.59 17.12,-6.54 16.87,-6.49 16.61,-6.52 16.36,-6.55 16.13,-6.66 15.89,-6.78 15.71,-6.95 15.53,-7.13 15.41,-7.36 15.29,-7.59 15.25,-7.85 15.22,-8.10 15.26,-8.35 15.31,-8.60 15.43,-8.83 15.55,-9.05 15.74,-9.23 15.93,-9.40 16.17,-9.51 16.40,-9.61 16.66,-9.64 16.91,-9.66 17.16,-9.60 17.41,-9.54 17.63,-9.41 17.85,-9.27 18.01,-9.07 18.18,-8.87 18.27,-8.63 18.36,-8.39 18.37,-8.14 18.38,-7.88 18.31,-7.63 18.23,-7.39 18.09,-7.18 17.94,-6.97 17.73,-6.82 17.53,-6.66 17.28,-6.58 17.04,-6.51 16.78,-6.51 16.52,-6.51 16.28,-6.60 16.04,-6.68 15.84,-6.84 15.64,-7.00 15.49,-7.22 15.35,-7.43 15.29,-7.68 15.22,-7.93 15.24,-8.18 15.26,-8.44 15.36,-8.68 15.46,-8.91 15.46,-8.91 15.46,-8.91 17.23,-11.86 19.00,-14.81 21.30,-18.58 23.61,-22.35 24.07,-23.96 24.54,-25.56 24.69,-27.01 24.83,-28.46 23.74,-28.78 22.64,-29.09 21.38,-29.50 20.12,-29.91 17.81,-30.58 15.50,-31.25 14.14,-32.03 12.78,-32.80 12.10,-31.83 11.41,-30.87 10.20,-28.10 8.99,-25.33 7.45,-21.46 5.90,-17.60 4.83,-13.91 3.75,-10.23 3.32,-7.42 2.89,-4.60 2.30,-2.08 1.71,0.44 1.63,0.64 1.55,0.83 1.43,1.01 1.30,1.18 1.14,1.32 0.98,1.46 0.79,1.56 0.60,1.65 0.39,1.70 0.19,1.75 -0.02,1.75 -0.23,1.75 -0.44,1.69 -0.64,1.64 -0.83,1.54 -1.02,1.44 -1.17,1.29 -1.33,1.15 -1.45,0.97 -1.57,0.80 -1.64,0.60 -1.72,0.40 -1.74,0.19 -1.76,-0.02 -1.73,-0.23 -1.71,-0.44 -1.71,-0.44 L -1.71,-0.44 Z"></path></g><g transform="translate(39.09161952178806 48.46558581214185) rotate(0 -1.7778211929980898 0.9697206507262877)" stroke="none"><path fill="#1e1e1e" d="M 1.01,1.86 Q 1.01,1.86 -0.79,2.76 -2.61,3.66 -2.91,3.77 -3.21,3.87 -3.53,3.88 -3.85,3.88 -4.15,3.78 -4.45,3.68 -4.71,3.49 -4.96,3.30 -5.14,3.04 -5.33,2.78 -5.41,2.48 -5.50,2.17 -5.49,1.85 -5.48,1.53 -5.36,1.24 -5.25,0.94 -5.04,0.70 -4.84,0.45 -4.57,0.28 -4.30,0.12 -3.99,0.04 -3.68,-0.02 -3.36,0.00 -3.05,0.03 -2.76,0.16 -2.47,0.29 -2.23,0.51 -2.00,0.73 -1.85,1.01 -1.69,1.28 -1.64,1.60 -1.58,1.91 -1.63,2.23 -1.68,2.54 -1.83,2.82 -1.97,3.11 -2.20,3.33 -2.43,3.55 -2.72,3.69 -3.00,3.82 -3.32,3.86 -3.63,3.90 -3.95,3.83 -4.26,3.77 -4.53,3.61 -4.81,3.45 -5.02,3.21 -5.22,2.97 -5.35,2.67 -5.47,2.38 -5.49,2.06 -5.51,1.74 -5.43,1.44 -5.35,1.13 -5.17,0.86 -4.99,0.60 -4.74,0.40 -4.49,0.21 -4.49,0.21 -4.49,0.21 -2.75,-0.82 -1.01,-1.86 -0.78,-1.96 -0.54,-2.05 -0.28,-2.09 -0.03,-2.12 0.22,-2.10 0.47,-2.07 0.71,-1.98 0.95,-1.90 1.17,-1.75 1.38,-1.61 1.55,-1.42 1.73,-1.23 1.85,-1.01 1.97,-0.78 2.04,-0.53 2.10,-0.29 2.11,-0.03 2.11,0.22 2.05,0.47 2.00,0.72 1.88,0.95 1.77,1.18 1.60,1.37 1.43,1.57 1.22,1.72 1.01,1.86 1.01,1.86 L 1.01,1.86 Z"></path></g><g transform="translate(35.53597713579188 50.40502711359443) rotate(0 0.00005000000010113581 0.00004999999998744897)" stroke="none"><path fill="#1e1e1e" d="M 1.57,-1.57 Q 1.57,-1.57 1.77,-1.27 1.98,-0.98 2.09,-0.64 2.20,-0.29 2.19,0.05 2.18,0.41 2.05,0.75 1.93,1.09 1.70,1.37 1.48,1.65 1.18,1.84 0.87,2.04 0.52,2.12 0.18,2.21 -0.17,2.18 -0.53,2.15 -0.86,2.01 -1.19,1.87 -1.46,1.63 -1.73,1.39 -1.90,1.07 -2.08,0.76 -2.15,0.41 -2.21,0.05 -2.17,-0.29 -2.12,-0.65 -1.96,-0.97 -1.80,-1.29 -1.54,-1.54 -1.29,-1.80 -0.97,-1.96 -0.65,-2.12 -0.29,-2.17 0.06,-2.21 0.41,-2.15 0.76,-2.08 1.07,-1.90 1.39,-1.73 1.63,-1.46 1.87,-1.19 2.01,-0.86 2.15,-0.53 2.18,-0.17 2.21,0.18 2.12,0.52 2.03,0.87 1.84,1.18 1.65,1.48 1.37,1.70 1.09,1.93 0.75,2.05 0.41,2.18 0.05,2.19 -0.30,2.20 -0.64,2.09 -0.98,1.98 -1.27,1.77 -1.57,1.56 -1.57,1.57 -1.57,1.57 -1.73,1.35 -1.90,1.14 -2.01,0.90 -2.12,0.66 -2.16,0.39 -2.21,0.13 -2.20,-0.13 -2.18,-0.40 -2.10,-0.65 -2.02,-0.91 -1.88,-1.14 -1.74,-1.36 -1.55,-1.55 -1.36,-1.74 -1.14,-1.88 -0.91,-2.02 -0.65,-2.10 -0.40,-2.18 -0.13,-2.20 0.13,-2.21 0.39,-2.16 0.66,-2.12 0.90,-2.01 1.14,-1.90 1.35,-1.73 1.57,-1.57 1.57,-1.57 L 1.57,-1.57 Z"></path></g><g transform="translate(49.11206624595911 35.535977135791654) rotate(0 -3.8788826029049233 6.788044555083843)" stroke="none"><path fill="#1e1e1e" d="M 2.15,1.02 Q 2.15,1.02 1.10,2.91 0.04,4.80 -0.73,6.32 -1.52,7.83 -2.10,8.92 -2.69,10.01 -4.25,12.52 -5.80,15.03 -6.09,15.30 -6.37,15.58 -6.73,15.74 -7.08,15.91 -7.48,15.96 -7.87,16.00 -8.25,15.92 -8.64,15.84 -8.98,15.64 -9.31,15.44 -9.57,15.14 -9.83,14.84 -9.98,14.48 -10.13,14.11 -10.15,13.72 -10.17,13.33 -10.07,12.95 -9.97,12.57 -9.75,12.24 -9.53,11.91 -9.22,11.67 -8.91,11.43 -8.54,11.30 -8.16,11.17 -7.77,11.17 -7.38,11.17 -7.00,11.29 -6.63,11.41 -6.31,11.65 -6.00,11.89 -5.78,12.21 -5.55,12.53 -5.44,12.91 -5.34,13.29 -5.35,13.68 -5.37,14.08 -5.52,14.44 -5.66,14.81 -5.91,15.11 -6.16,15.41 -6.50,15.62 -6.84,15.83 -7.22,15.91 -7.60,16.00 -8.00,15.96 -8.39,15.92 -8.75,15.76 -9.10,15.59 -9.39,15.33 -9.68,15.06 -9.87,14.71 -10.05,14.36 -10.12,13.98 -10.19,13.59 -10.13,13.20 -10.06,12.81 -9.88,12.46 -9.70,12.11 -9.70,12.11 -9.70,12.11 -8.10,9.91 -6.50,7.71 -5.88,6.80 -5.26,5.89 -4.51,4.44 -3.76,2.99 -2.96,0.98 -2.15,-1.02 -2.00,-1.27 -1.84,-1.51 -1.64,-1.71 -1.43,-1.91 -1.18,-2.05 -0.93,-2.19 -0.65,-2.27 -0.38,-2.35 -0.09,-2.37 0.19,-2.38 0.47,-2.32 0.75,-2.26 1.01,-2.14 1.28,-2.01 1.50,-1.83 1.72,-1.65 1.89,-1.42 2.07,-1.19 2.18,-0.92 2.29,-0.66 2.34,-0.37 2.38,-0.09 2.36,0.19 2.34,0.48 2.24,0.75 2.15,1.02 2.15,1.02 L 2.15,1.02 Z"></path></g><g transform="translate(29.717653231434042 13.878882602905094) rotate(0 -8.727485856536418 18.909552689162155)" stroke="none"><path fill="#1e1e1e" d="M 0.51,1.65 Q 0.51,1.65 -0.95,2.17 -2.41,2.69 -6.76,4.72 -11.11,6.76 -13.04,6.92 -14.97,7.09 -14.38,8.87 -13.79,10.64 -13.09,11.83 -12.39,13.02 -10.64,15.47 -8.89,17.91 -6.81,21.09 -4.73,24.26 -2.64,27.67 -0.55,31.08 0.52,32.67 1.60,34.26 2.63,35.54 3.67,36.82 3.79,37.07 3.91,37.32 3.95,37.60 3.98,37.88 3.93,38.15 3.87,38.42 3.73,38.66 3.59,38.91 3.38,39.09 3.17,39.27 2.92,39.38 2.66,39.49 2.38,39.51 2.10,39.53 1.83,39.46 1.56,39.39 1.33,39.24 1.10,39.09 0.92,38.87 0.75,38.65 0.66,38.39 0.56,38.12 0.56,37.85 0.55,37.57 0.64,37.30 0.72,37.04 0.88,36.81 1.05,36.58 1.28,36.42 1.50,36.26 1.77,36.18 2.04,36.10 2.32,36.11 2.60,36.12 2.86,36.22 3.12,36.32 3.33,36.50 3.55,36.67 3.70,36.91 3.85,37.15 3.91,37.42 3.98,37.69 3.95,37.97 3.93,38.24 3.81,38.50 3.70,38.76 3.51,38.96 3.33,39.17 3.08,39.30 2.84,39.44 2.56,39.49 2.29,39.54 2.01,39.50 1.74,39.46 1.49,39.33 1.24,39.21 1.04,39.01 0.85,38.81 0.85,38.81 0.85,38.81 -0.03,37.37 -0.91,35.94 -1.99,34.29 -3.06,32.64 -5.17,29.31 -7.28,25.98 -9.39,22.91 -11.50,19.84 -13.50,17.22 -15.49,14.59 -16.17,13.04 -16.85,11.49 -17.31,9.43 -17.78,7.38 -15.19,5.53 -12.60,3.69 -8.06,1.43 -3.52,-0.83 -2.02,-1.24 -0.51,-1.65 -0.31,-1.69 -0.10,-1.73 0.10,-1.71 0.31,-1.70 0.51,-1.64 0.71,-1.58 0.88,-1.47 1.06,-1.36 1.21,-1.21 1.36,-1.07 1.47,-0.89 1.58,-0.71 1.64,-0.51 1.70,-0.31 1.71,-0.10 1.73,0.10 1.69,0.30 1.65,0.51 1.57,0.70 1.48,0.89 1.35,1.06 1.22,1.22 1.06,1.35 0.89,1.48 0.70,1.57 0.51,1.65 0.51,1.65 L 0.51,1.65 Z"></path></g><g transform="translate(21.895865392143833 23.99602316784319) rotate(0 1.850061851818964 -0.21765433550811508)" stroke="none"><path fill="#1e1e1e" d="M -0.15,-2.37 Q -0.15,-2.37 1.56,-2.62 3.28,-2.87 3.68,-2.87 4.08,-2.87 4.46,-2.75 4.84,-2.62 5.16,-2.38 5.48,-2.14 5.71,-1.81 5.93,-1.48 6.04,-1.10 6.15,-0.71 6.13,-0.31 6.11,0.08 5.97,0.45 5.82,0.82 5.56,1.13 5.31,1.43 4.96,1.64 4.62,1.85 4.23,1.94 3.84,2.03 3.45,1.99 3.05,1.94 2.68,1.78 2.32,1.61 2.03,1.34 1.74,1.07 1.55,0.71 1.36,0.36 1.29,-0.02 1.22,-0.42 1.29,-0.81 1.35,-1.21 1.53,-1.56 1.72,-1.91 2.01,-2.19 2.30,-2.47 2.66,-2.64 3.02,-2.81 3.42,-2.85 3.81,-2.90 4.21,-2.81 4.60,-2.73 4.94,-2.53 5.28,-2.32 5.54,-2.02 5.80,-1.72 5.96,-1.35 6.11,-0.98 6.13,-0.58 6.15,-0.18 6.05,0.20 5.94,0.58 5.72,0.92 5.50,1.25 5.18,1.49 4.87,1.74 4.49,1.87 4.11,2.00 4.11,2.00 4.11,2.00 2.13,2.18 0.15,2.37 -0.12,2.36 -0.41,2.34 -0.69,2.26 -0.96,2.18 -1.21,2.03 -1.45,1.88 -1.66,1.68 -1.86,1.48 -2.01,1.23 -2.16,0.99 -2.25,0.71 -2.34,0.44 -2.36,0.15 -2.38,-0.12 -2.33,-0.41 -2.28,-0.69 -2.16,-0.95 -2.04,-1.22 -1.87,-1.44 -1.69,-1.67 -1.47,-1.85 -1.24,-2.03 -0.98,-2.15 -0.72,-2.27 -0.44,-2.32 -0.15,-2.37 -0.15,-2.37 L -0.15,-2.37 Z"></path></g><g transform="translate(45.402533627019466 22.037134148270184) rotate(0 2.829506361605354 0)" stroke="none"><path fill="#1e1e1e" d="M 0,-2.35 Q 0,-2.35 2.82,-2.40 5.65,-2.46 6.05,-2.39 6.44,-2.33 6.79,-2.14 7.14,-1.96 7.42,-1.67 7.69,-1.38 7.86,-1.02 8.03,-0.65 8.07,-0.26 8.11,0.13 8.03,0.52 7.94,0.91 7.74,1.25 7.53,1.59 7.23,1.85 6.92,2.11 6.55,2.25 6.18,2.40 5.79,2.42 5.39,2.44 5.00,2.34 4.62,2.23 4.29,2.01 3.96,1.78 3.72,1.47 3.48,1.15 3.35,0.77 3.22,0.39 3.22,-0.00 3.22,-0.39 3.35,-0.77 3.48,-1.15 3.72,-1.47 3.96,-1.78 4.29,-2.01 4.62,-2.23 5.00,-2.34 5.39,-2.44 5.79,-2.42 6.18,-2.40 6.55,-2.25 6.92,-2.11 7.23,-1.85 7.53,-1.59 7.74,-1.25 7.94,-0.91 8.03,-0.52 8.11,-0.13 8.07,0.26 8.03,0.65 7.86,1.02 7.69,1.38 7.42,1.67 7.14,1.96 6.79,2.14 6.44,2.33 6.05,2.39 5.65,2.46 5.65,2.46 5.65,2.46 2.82,2.40 0,2.35 -0.28,2.32 -0.56,2.28 -0.82,2.18 -1.09,2.08 -1.32,1.92 -1.56,1.76 -1.75,1.55 -1.93,1.33 -2.07,1.08 -2.20,0.83 -2.27,0.55 -2.33,0.28 -2.33,-0.00 -2.33,-0.28 -2.27,-0.55 -2.20,-0.83 -2.07,-1.08 -1.93,-1.33 -1.75,-1.55 -1.56,-1.76 -1.32,-1.92 -1.09,-2.08 -0.82,-2.18 -0.56,-2.28 -0.28,-2.32 0.00,-2.35 0.00,-2.35 L 0,-2.35 Z"></path></g><g transform="translate(29.048575245297116 40.519189949482666) rotate(0 6.541793703369194 -0.3270896851684597)" stroke="none"><path fill="#1e1e1e" d="M 0,-2.60 Q 0,-2.60 1.41,-2.60 2.82,-2.59 3.89,-2.62 4.96,-2.64 6.23,-2.72 7.51,-2.79 8.75,-2.86 9.99,-2.93 11.51,-3.28 13.03,-3.64 13.51,-3.56 13.99,-3.49 14.42,-3.27 14.85,-3.05 15.19,-2.71 15.52,-2.36 15.73,-1.93 15.94,-1.49 16.00,-1.01 16.06,-0.53 15.97,-0.06 15.87,0.40 15.63,0.82 15.38,1.24 15.02,1.56 14.66,1.88 14.21,2.06 13.77,2.25 13.28,2.28 12.80,2.31 12.33,2.19 11.87,2.07 11.46,1.81 11.06,1.54 10.76,1.16 10.46,0.78 10.30,0.33 10.14,-0.12 10.13,-0.60 10.12,-1.09 10.27,-1.55 10.42,-2.01 10.70,-2.40 10.99,-2.79 11.39,-3.06 11.78,-3.34 12.25,-3.48 12.71,-3.61 13.19,-3.59 13.68,-3.58 14.13,-3.40 14.58,-3.23 14.95,-2.92 15.32,-2.62 15.58,-2.21 15.84,-1.80 15.95,-1.33 16.06,-0.86 16.01,-0.38 15.97,0.10 15.77,0.54 15.58,0.98 15.25,1.33 14.92,1.69 14.50,1.92 14.08,2.16 13.60,2.24 13.12,2.33 13.12,2.33 13.13,2.33 11.70,2.63 10.27,2.93 8.89,2.86 7.51,2.79 6.23,2.72 4.96,2.64 3.89,2.62 2.82,2.59 1.41,2.60 0,2.60 -0.31,2.57 -0.62,2.53 -0.91,2.42 -1.21,2.31 -1.47,2.13 -1.73,1.95 -1.93,1.71 -2.14,1.48 -2.29,1.20 -2.43,0.92 -2.51,0.61 -2.59,0.31 -2.59,-0.00 -2.59,-0.31 -2.51,-0.62 -2.43,-0.92 -2.29,-1.20 -2.14,-1.48 -1.93,-1.71 -1.73,-1.95 -1.47,-2.13 -1.21,-2.31 -0.91,-2.42 -0.62,-2.53 -0.31,-2.57 0.00,-2.60 0.00,-2.60 L 0,-2.60 Z"></path></g><g transform="translate(28.721485560128485 39.53792089397734) rotate(0 2.1260829535949597 -3.4344416942688554)" stroke="none"><path fill="#1e1e1e" d="M -2.47,-0.61 Q -2.47,-0.61 -2.21,-1.75 -1.96,-2.88 -1.75,-4.12 -1.54,-5.35 -1.09,-6.43 -0.64,-7.52 -0.06,-8.16 0.51,-8.80 0.78,-9.03 1.06,-9.27 1.38,-9.43 1.71,-9.59 2.06,-9.66 2.41,-9.74 2.77,-9.73 3.13,-9.72 3.48,-9.63 3.83,-9.53 4.15,-9.36 4.46,-9.18 4.73,-8.94 4.99,-8.69 5.19,-8.39 5.39,-8.09 5.51,-7.75 5.63,-7.40 5.66,-7.05 5.70,-6.69 5.65,-6.33 5.59,-5.97 5.46,-5.64 5.32,-5.30 5.11,-5.01 4.90,-4.72 5.35,-5.68 5.80,-6.65 6.06,-5.61 6.32,-4.56 6.63,-4.17 6.93,-3.78 7.10,-3.31 7.27,-2.85 7.28,-2.35 7.29,-1.85 7.14,-1.38 7.00,-0.90 6.70,-0.50 6.41,-0.10 6.00,0.18 5.60,0.47 5.12,0.61 4.64,0.76 4.15,0.74 3.65,0.72 3.18,0.55 2.72,0.37 2.33,0.06 1.94,-0.24 1.68,-0.67 1.41,-1.09 1.30,-1.57 1.18,-2.05 1.22,-2.55 1.27,-3.05 1.47,-3.50 1.67,-3.96 2.00,-4.33 2.33,-4.69 2.77,-4.94 3.20,-5.18 3.69,-5.27 4.18,-5.36 4.68,-5.29 5.17,-5.22 5.61,-5.00 6.06,-4.77 6.41,-4.42 6.76,-4.06 6.98,-3.62 7.19,-3.17 7.26,-2.68 7.32,-2.18 7.23,-1.69 7.13,-1.21 6.88,-0.77 6.63,-0.34 6.26,-0.01 5.89,0.31 5.43,0.50 4.97,0.70 4.47,0.73 3.98,0.77 3.50,0.65 3.01,0.52 2.60,0.25 2.18,-0.01 2.18,-0.01 2.18,-0.01 1.03,-2.75 -0.11,-5.48 0.19,-7.14 0.51,-8.80 0.78,-9.03 1.06,-9.27 1.38,-9.43 1.71,-9.59 2.06,-9.66 2.41,-9.74 2.77,-9.73 3.13,-9.72 3.48,-9.63 3.83,-9.53 4.15,-9.36 4.46,-9.18 4.73,-8.94 4.99,-8.69 5.19,-8.39 5.39,-8.09 5.51,-7.75 5.63,-7.41 5.66,-7.05 5.70,-6.69 5.65,-6.33 5.59,-5.97 5.46,-5.64 5.32,-5.30 5.11,-5.01 4.90,-4.72 4.31,-4.21 3.73,-3.71 3.41,-2.67 3.08,-1.62 2.78,-0.50 2.47,0.61 2.36,0.90 2.25,1.19 2.08,1.44 1.90,1.69 1.67,1.90 1.44,2.10 1.17,2.24 0.89,2.39 0.59,2.46 0.29,2.53 -0.00,2.53 -0.31,2.53 -0.61,2.45 -0.91,2.38 -1.18,2.24 -1.45,2.09 -1.68,1.89 -1.91,1.68 -2.09,1.43 -2.26,1.17 -2.37,0.89 -2.48,0.60 -2.51,0.29 -2.55,-0.00 -2.51,-0.31 -2.47,-0.61 -2.47,-0.61 L -2.47,-0.61 Z"></path></g><g transform="translate(39.515445170687826 32.01485813510271) rotate(0 0.9812690555052086 3.270896851684597)" stroke="none"><path fill="#1e1e1e" d="M 2.54,-0.50 Q 2.54,-0.50 2.45,1.21 2.36,2.94 1.71,3.78 1.05,4.62 2.24,4.03 3.43,3.43 3.92,3.54 4.41,3.65 4.84,3.90 5.27,4.16 5.60,4.54 5.93,4.93 6.11,5.39 6.30,5.86 6.33,6.36 6.36,6.87 6.22,7.35 6.09,7.84 5.81,8.25 5.53,8.67 5.13,8.98 4.73,9.28 4.25,9.44 3.78,9.60 3.27,9.61 2.77,9.61 2.29,9.45 1.82,9.29 1.41,8.98 1.01,8.68 0.73,8.26 0.45,7.85 0.31,7.36 0.18,6.88 0.20,6.38 0.23,5.87 0.41,5.41 0.60,4.94 0.92,4.56 1.25,4.17 1.68,3.91 2.11,3.65 2.60,3.54 3.09,3.43 3.59,3.49 4.09,3.54 4.55,3.75 5.01,3.96 5.37,4.30 5.74,4.65 5.97,5.09 6.21,5.54 6.29,6.03 6.38,6.53 6.30,7.03 6.21,7.52 5.98,7.97 5.75,8.41 5.38,8.76 5.02,9.11 4.56,9.32 4.10,9.53 3.60,9.59 3.10,9.64 3.10,9.64 3.10,9.64 0.21,8.77 -2.67,7.89 -3.20,6.49 -3.72,5.09 -3.88,3.91 -4.04,2.74 -2.82,1.77 -1.61,0.81 -2.07,0.66 -2.54,0.50 -2.57,0.19 -2.59,-0.11 -2.54,-0.42 -2.49,-0.73 -2.36,-1.01 -2.24,-1.30 -2.05,-1.55 -1.86,-1.80 -1.62,-2.00 -1.37,-2.20 -1.09,-2.33 -0.81,-2.46 -0.50,-2.52 -0.19,-2.58 0.11,-2.57 0.42,-2.56 0.72,-2.47 1.02,-2.38 1.29,-2.22 1.56,-2.06 1.79,-1.85 2.01,-1.63 2.18,-1.36 2.35,-1.10 2.44,-0.80 2.54,-0.50 2.54,-0.50 L 2.54,-0.50 Z"></path></g><g transform="translate(42.459252337204134 36.921203412629666) rotate(0 -0.981269055505436 -2.289627796179218)" stroke="none"><path fill="#1e1e1e" d="M -2.21,0.85 Q -2.21,0.85 -3.20,-1.32 -4.19,-3.51 -4.30,-3.89 -4.41,-4.27 -4.40,-4.67 -4.38,-5.07 -4.24,-5.45 -4.09,-5.82 -3.84,-6.13 -3.58,-6.44 -3.24,-6.65 -2.90,-6.86 -2.51,-6.95 -2.12,-7.04 -1.73,-7.00 -1.33,-6.97 -0.96,-6.80 -0.60,-6.64 -0.30,-6.37 -0.01,-6.10 0.17,-5.75 0.37,-5.40 0.44,-5.00 0.51,-4.61 0.45,-4.21 0.39,-3.82 0.20,-3.46 0.02,-3.10 -0.26,-2.82 -0.54,-2.54 -0.90,-2.37 -1.26,-2.20 -1.66,-2.15 -2.06,-2.10 -2.45,-2.18 -2.84,-2.26 -3.19,-2.47 -3.53,-2.67 -3.80,-2.97 -4.06,-3.27 -4.21,-3.64 -4.37,-4.01 -4.39,-4.41 -4.42,-4.81 -4.32,-5.20 -4.22,-5.58 -4.00,-5.92 -3.78,-6.25 -3.46,-6.50 -3.14,-6.74 -2.77,-6.88 -2.39,-7.01 -1.99,-7.02 -1.59,-7.02 -1.21,-6.90 -0.83,-6.78 -0.51,-6.54 -0.18,-6.30 0.04,-5.97 0.26,-5.64 0.26,-5.64 0.26,-5.64 1.24,-3.25 2.21,-0.85 2.28,-0.57 2.35,-0.29 2.35,-0.01 2.35,0.27 2.29,0.55 2.22,0.83 2.09,1.08 1.95,1.33 1.77,1.55 1.58,1.76 1.34,1.93 1.11,2.09 0.84,2.19 0.57,2.30 0.29,2.33 0.01,2.37 -0.27,2.34 -0.55,2.30 -0.82,2.20 -1.09,2.10 -1.32,1.94 -1.56,1.78 -1.75,1.57 -1.94,1.35 -2.08,1.10 -2.21,0.85 -2.21,0.85 L -2.21,0.85 Z"></path></g></svg>